<svg width="92" height="92" viewBox="0 0 92 92" fill="none" xmlns="http://www.w3.org/2000/svg">
  <g filter="url(#filter0_d_41747_2157)">
    <rect width="92" height="92" rx="24" fill="white"/>
    <path
      d="M41.7339 42.125C42.8379 42.125 43.7339 41.229 43.7339 40.125V32.325C43.7339 28.838 46.5709 26 50.0579 26C53.5449 26 56.3829 28.838 56.3829 32.325V40.125C56.3829 41.229 57.2779 42.125 58.3829 42.125C59.4869 42.125 60.3829 41.229 60.3829 40.125V32.325C60.3839 26.632 55.7519 22 50.0579 22C44.3659 22 39.7339 26.632 39.7339 32.325V40.125C39.7339 41.229 40.6299 42.125 41.7339 42.125Z"
      fill="url(#paint0_linear_41747_2157)"/>
    <path
      d="M73 37.631H62.384V40.125C62.384 42.331 60.59 44.125 58.384 44.125C56.178 44.125 54.384 42.331 54.384 40.125V37.631H45.735V40.125C45.735 42.331 43.941 44.125 41.735 44.125C39.529 44.125 37.735 42.331 37.735 40.125V37.631H27C26.448 37.631 26.107 38.066 26.238 38.602L33.236 67.099C33.658 68.701 35.344 70 37 70H63C64.658 70 66.342 68.701 66.766 67.099L73.762 38.602C73.893 38.065 73.553 37.631 73 37.631Z"
      fill="url(#paint1_linear_41747_2157)"/>
    <path
      d="M46.6001 48.4C46.6001 47.6265 47.2266 47 48.0001 47C48.7736 47 49.4001 47.6265 49.4001 48.4V55.35L49.4001 54C49.4001 53.2265 50.0266 52.6 50.8001 52.6C51.5736 52.6 52.2001 53.2265 52.2001 54V55.6764C52.2127 54.9141 52.8346 53.3 53.6 53.3C54.3731 53.3 54.9999 53.9268 55 54.7C55 54.7 55.0411 55.7411 55.1332 55.8033C55.3572 55.3285 55.8402 54 56.4 54C57.1732 54 57.8 54.6268 57.8 55.4V62.4C57.8 63.9463 56.5463 65.2 55 65.2H50.3198C48.8344 65.2 47.4099 64.6099 46.3599 63.5599L44.15 61.35L41 59.9402C41.0051 58.6033 42.0526 58.2 43.1 58.2C44.0023 58.2 44.8136 58.3407 46.6 59.25L46.6001 48.4Z"
      fill="white"/>
  </g>
  <defs>
    <filter id="filter0_d_41747_2157" x="0" y="0" width="92" height="92" filterUnits="userSpaceOnUse"
            color-interpolation-filters="sRGB">
      <feFlood flood-opacity="0" result="BackgroundImageFix"/>
      <feColorMatrix in="SourceAlpha" type="matrix" values="0 0 0 0 0 0 0 0 0 0 0 0 0 0 0 0 0 0 127 0"
                     result="hardAlpha"/>
      <feOffset dy="4"/>
      <feGaussianBlur stdDeviation="2"/>
      <feComposite in2="hardAlpha" operator="out"/>
      <feColorMatrix type="matrix" values="0 0 0 0 0 0 0 0 0 0 0 0 0 0 0 0 0 0 0.25 0"/>
      <feBlend mode="normal" in2="BackgroundImageFix" result="effect1_dropShadow_41747_2157"/>
      <feBlend mode="normal" in="SourceGraphic" in2="effect1_dropShadow_41747_2157" result="shape"/>
    </filter>
    <linearGradient id="paint0_linear_41747_2157" x1="50.0584" y1="22" x2="50.0584" y2="42.125"
                    gradientUnits="userSpaceOnUse">
      <stop stop-color="#EF8080"/>
      <stop offset="1" stop-color="#F0145A"/>
    </linearGradient>
    <linearGradient id="paint1_linear_41747_2157" x1="50" y1="37.631" x2="50" y2="70" gradientUnits="userSpaceOnUse">
      <stop stop-color="#EF8080"/>
      <stop offset="1" stop-color="#F0145A"/>
    </linearGradient>
  </defs>
</svg>
