<svg width="182" height="52" viewBox="0 0 182 52" fill="none" xmlns="http://www.w3.org/2000/svg">
<g clip-path="url(#clip0_42336_2101)" filter="url(#filter0_d_42336_2101)">
<path d="M48.1065 22C48.1065 17.0441 46.4291 12.2333 43.3461 8.34719C40.2631 4.46104 35.9551 1.72718 31.12 0.588541C26.285 -0.550098 21.2062 -0.0268067 16.7066 2.07363C12.2069 4.17407 8.54995 7.7286 6.32823 12.1613C4.10651 16.594 3.45017 21.6453 4.46556 26.4966C5.48094 31.3479 8.10856 35.7151 11.9227 38.8906C15.7368 42.0661 20.514 43.8638 25.4803 43.9926C30.4465 44.1214 35.3108 42.5736 39.2852 39.6H25.4946C22.0496 39.5068 18.7075 38.4091 15.8809 36.4425C13.0542 34.4759 10.8668 31.7265 9.58875 28.5338C8.31067 25.3411 7.99789 21.8449 8.68901 18.4769C9.38013 15.1088 11.0449 12.0165 13.4778 9.5816C15.9106 7.14673 19.0051 5.47596 22.379 4.77559C25.7529 4.07522 29.2586 4.37592 32.4631 5.64056C35.6676 6.9052 38.4308 9.0784 40.4113 11.8918C42.3918 14.7053 43.503 18.0357 43.6076 21.472V35.2C46.5254 31.4153 48.1071 26.7745 48.1065 22Z" fill="white"/>
<path d="M37.0651 32.9855V23.7455H30.2139C29.7947 24.7116 29.0648 25.5109 28.1395 26.0171C27.2142 26.5233 26.1463 26.7077 25.1043 26.541C24.0624 26.3744 23.1057 25.8663 22.3854 25.0969C21.6651 24.3275 21.2222 23.3407 21.1267 22.2923C21.0312 21.2439 21.2884 20.1936 21.8578 19.3073C22.4272 18.4209 23.2763 17.7491 24.2711 17.3977C25.2659 17.0464 26.3496 17.0356 27.3512 17.3671C28.3528 17.6985 29.2152 18.3534 29.8023 19.2282H36.727C36.2389 17.2271 35.2033 15.4006 33.7356 13.9523C32.2678 12.5041 30.4257 11.491 28.4145 11.026C26.4034 10.5611 24.3023 10.6626 22.3456 11.3192C20.3889 11.9758 18.6535 13.1616 17.3329 14.7446C16.0123 16.3275 15.1584 18.2453 14.8664 20.2841C14.5744 22.3228 14.8559 24.4024 15.6794 26.2909C16.5028 28.1795 17.836 29.8027 19.5301 30.9796C21.2243 32.1565 23.2128 32.8408 25.274 32.9562L37.0651 32.9855Z" fill="white"/>
<path d="M63.3967 15.7961C61.8969 15.799 60.4316 16.2454 59.186 17.0787C57.9404 17.912 56.9703 19.095 56.3984 20.4781C55.8264 21.8613 55.6783 23.3825 55.9727 24.8496C56.267 26.3166 56.9907 27.6637 58.0523 28.7207C59.1138 29.7776 60.4656 30.497 61.9368 30.7878C63.408 31.0786 64.9326 30.9279 66.318 30.3546C67.7033 29.7814 68.8873 28.8114 69.7202 27.5672C70.5532 26.3229 70.9977 24.8603 70.9977 23.3641C71.0076 22.3663 70.8176 21.3766 70.4389 20.453C70.0602 19.5294 69.5005 18.6905 68.7925 17.9856C68.0845 17.2807 67.2425 16.7239 66.316 16.348C65.3894 15.972 64.3969 15.7844 63.3967 15.7961ZM63.3967 27.3241C62.8772 27.3325 62.3614 27.2351 61.8809 27.0379C61.4004 26.8407 60.9652 26.5479 60.6019 26.1773C60.2386 25.8067 59.9549 25.366 59.7681 24.8824C59.5813 24.3987 59.4953 23.8821 59.5153 23.3641C59.4827 22.8346 59.5591 22.3041 59.7397 21.8051C59.9204 21.3062 60.2015 20.8494 60.5658 20.4629C60.9301 20.0764 61.3699 19.7685 61.858 19.558C62.3461 19.3474 62.8723 19.2388 63.4041 19.2388C63.9359 19.2388 64.462 19.3474 64.9501 19.558C65.4383 19.7685 65.878 20.0764 66.2423 20.4629C66.6066 20.8494 66.8878 21.3062 67.0684 21.8051C67.2491 22.3041 67.3254 22.8346 67.2928 23.3641C67.3129 23.8834 67.2265 24.4012 67.0388 24.8859C66.8511 25.3706 66.566 25.8119 66.2012 26.1827C65.8363 26.5535 65.3994 26.8461 64.9171 27.0423C64.4349 27.2386 63.9175 27.3345 63.3967 27.3241ZM77.1285 18.6708V16.1335H73.4236V30.4775H77.1285V23.6868C77.1022 23.1329 77.2052 22.5805 77.4294 22.0732C77.6536 21.5658 77.993 21.1174 78.4207 20.7633C78.8484 20.4091 79.3527 20.159 79.8939 20.0326C80.4351 19.9062 80.9983 19.9069 81.5392 20.0348V15.9135C80.6059 15.8469 79.6755 16.0782 78.8827 16.5739C78.0898 17.0695 77.4755 17.8039 77.1285 18.6708ZM94.3006 17.8935C93.7402 17.2033 93.0252 16.6541 92.2132 16.2898C91.4012 15.9255 90.5148 15.7564 89.6254 15.7961C88.6688 15.8338 87.729 16.0598 86.8603 16.4611C85.9916 16.8624 85.2109 17.431 84.5633 18.1344C83.9156 18.8377 83.4137 19.6618 83.0865 20.5593C82.7593 21.4569 82.6132 22.4101 82.6565 23.3641C82.6132 24.3182 82.7593 25.2714 83.0865 26.1689C83.4137 27.0665 83.9156 27.8906 84.5633 28.5939C85.2109 29.2972 85.9916 29.8659 86.8603 30.2672C87.729 30.6685 88.6688 30.8945 89.6254 30.9321C90.5148 30.9718 91.4012 30.8028 92.2132 30.4385C93.0252 30.0742 93.7402 29.5249 94.3006 28.8348V30.5361H98.0056V16.1335H94.3006V17.8935ZM90.3164 27.4121C89.7817 27.4313 89.2489 27.339 88.7519 27.1414C88.255 26.9438 87.8047 26.645 87.4299 26.2642C87.055 25.8833 86.7638 25.4288 86.5748 24.9295C86.3858 24.4302 86.3031 23.8971 86.3321 23.3641C86.3321 22.3139 86.7503 21.3066 87.4947 20.564C88.2392 19.8214 89.2489 19.4041 90.3017 19.4041C91.3545 19.4041 92.3641 19.8214 93.1086 20.564C93.853 21.3066 94.2712 22.3139 94.2712 23.3641C94.2977 23.894 94.2143 24.4236 94.0262 24.9198C93.8382 25.4161 93.5496 25.8683 93.1784 26.2482C92.8072 26.6281 92.3615 26.9276 91.869 27.1278C91.3766 27.3281 90.848 27.4249 90.3164 27.4121ZM109.223 15.7961C108.398 15.742 107.572 15.898 106.824 16.2495C106.076 16.6009 105.429 17.1364 104.945 17.8055V16.1335H101.255V30.4775H104.945V22.7921C104.945 20.2988 106.298 19.2428 108.106 19.2428C108.495 19.2148 108.885 19.2723 109.249 19.4113C109.613 19.5503 109.942 19.7673 110.213 20.0472C110.483 20.327 110.689 20.6627 110.815 21.0306C110.942 21.3985 110.985 21.7895 110.943 22.1761V30.5215H114.648V21.7215C114.648 17.9228 112.267 15.7961 109.223 15.7961ZM128.674 17.9815C128.145 17.2731 127.451 16.7039 126.652 16.3231C125.852 15.9424 124.972 15.7615 124.087 15.7961C123.134 15.8037 122.191 16.0001 121.314 16.3738C120.437 16.7476 119.643 17.2913 118.979 17.9735C118.314 18.6557 117.792 19.4627 117.442 20.3478C117.092 21.2328 116.922 22.1784 116.942 23.1295C116.92 24.0811 117.089 25.0275 117.438 25.9135C117.787 26.7994 118.309 27.6072 118.974 28.2898C119.639 28.9724 120.434 29.516 121.312 29.8891C122.19 30.2622 123.133 30.4572 124.087 30.4628C124.972 30.4974 125.852 30.3165 126.652 29.9358C127.451 29.555 128.145 28.9859 128.674 28.2775V29.8321C128.706 30.3219 128.629 30.8127 128.449 31.2693C128.269 31.7259 127.99 32.1372 127.631 32.4735C127.273 32.8099 126.845 33.0631 126.377 33.215C125.909 33.3669 125.413 33.4137 124.925 33.3521C124.167 33.4454 123.398 33.3023 122.724 32.9426C122.05 32.5829 121.505 32.0241 121.161 31.3428L118.001 33.1615C118.703 34.3135 119.709 35.2502 120.91 35.8686C122.111 36.487 123.46 36.7632 124.808 36.6668C128.586 36.6668 132.291 34.5401 132.291 29.8468V16.1335H128.674V17.9815ZM124.661 27.0601C123.889 27.0428 123.139 26.7989 122.506 26.3589C121.872 25.9188 121.383 25.3022 121.099 24.5861C120.815 23.8701 120.749 23.0864 120.909 22.333C121.069 21.5797 121.448 20.8901 121.999 20.3506C122.55 19.8111 123.248 19.4457 124.006 19.2999C124.764 19.1542 125.548 19.2346 126.261 19.5312C126.973 19.8277 127.582 20.3273 128.011 20.9673C128.441 21.6073 128.671 22.3594 128.674 23.1295C128.689 23.6559 128.595 24.1797 128.397 24.6681C128.2 25.1565 127.903 25.599 127.527 25.968C127.15 26.3369 126.701 26.6243 126.208 26.8122C125.715 27.0002 125.188 27.0846 124.661 27.0601ZM142.377 15.7961C141.376 15.7717 140.382 15.9511 139.454 16.3236C138.525 16.696 137.683 17.2535 136.978 17.962C136.274 18.6705 135.721 19.5151 135.355 20.444C134.989 21.3729 134.817 22.3666 134.849 23.3641C134.814 24.3915 134.995 25.4148 135.382 26.3677C135.768 27.3206 136.351 28.1818 137.093 28.8954C137.834 29.609 138.718 30.1591 139.687 30.51C140.655 30.8609 141.687 31.0047 142.715 30.9321C143.923 30.9767 145.123 30.7197 146.207 30.1844C147.29 29.6492 148.222 28.8525 148.919 27.8668L145.979 26.1508C145.591 26.6254 145.099 27.0045 144.54 27.2589C143.982 27.5132 143.372 27.6359 142.759 27.6175C141.868 27.7326 140.966 27.525 140.216 27.0324C139.466 26.5398 138.918 25.795 138.672 24.9335H149.551C149.643 24.4497 149.692 23.959 149.698 23.4668C149.757 22.4752 149.61 21.4822 149.268 20.5495C148.925 19.6167 148.394 18.7642 147.708 18.0448C147.021 17.3255 146.194 16.7546 145.277 16.3678C144.359 15.981 143.372 15.7864 142.377 15.7961ZM138.613 22.0001C138.767 21.1341 139.236 20.3553 139.931 19.8138C140.626 19.2723 141.497 19.0062 142.377 19.0668C143.227 19.0354 144.06 19.3168 144.716 19.8577C145.372 20.3985 145.805 21.161 145.935 22.0001H138.613ZM162.989 17.8788C162.433 17.1995 161.727 16.6579 160.926 16.2966C160.125 15.9352 159.251 15.7639 158.373 15.7961C157.416 15.8338 156.476 16.0598 155.608 16.4611C154.739 16.8624 153.958 17.431 153.311 18.1344C152.663 18.8377 152.161 19.6618 151.834 20.5593C151.507 21.4569 151.36 22.4101 151.404 23.3641C151.36 24.3182 151.507 25.2714 151.834 26.1689C152.161 27.0665 152.663 27.8906 153.311 28.5939C153.958 29.2972 154.739 29.8659 155.608 30.2672C156.476 30.6685 157.416 30.8945 158.373 30.9321C159.262 30.9718 160.148 30.8028 160.96 30.4385C161.772 30.0742 162.487 29.5249 163.048 28.8348V30.5361H166.753V16.1335H163.048L162.989 17.8788ZM159.005 27.3975C158.473 27.4124 157.943 27.3172 157.45 27.1177C156.956 26.9182 156.509 26.6188 156.138 26.2384C155.766 25.858 155.478 25.4049 155.29 24.9077C155.103 24.4104 155.021 23.8799 155.05 23.3495C155.05 22.2992 155.468 21.292 156.213 20.5493C156.957 19.8067 157.967 19.3895 159.02 19.3895C160.072 19.3895 161.082 19.8067 161.826 20.5493C162.571 21.292 162.989 22.2992 162.989 23.3495C163.018 23.8831 162.935 24.4168 162.746 24.9168C162.557 25.4169 162.267 25.8723 161.892 26.2543C161.517 26.6363 161.067 26.9364 160.57 27.1357C160.073 27.335 159.54 27.4292 159.005 27.4121V27.3975ZM173.633 18.5975V16.1335H169.929V30.4775H173.633V23.6868C173.607 23.1329 173.71 22.5805 173.934 22.0732C174.159 21.5658 174.498 21.1174 174.926 20.7633C175.353 20.4091 175.858 20.159 176.399 20.0326C176.94 19.9062 177.503 19.9069 178.044 20.0348V15.9135C177.111 15.8469 176.18 16.0782 175.388 16.5739C174.595 17.0695 173.98 17.8039 173.633 18.6708V18.5975Z" fill="white"/>
</g>
<defs>
<filter id="filter0_d_42336_2101" x="0" y="0" width="182" height="52" filterUnits="userSpaceOnUse" color-interpolation-filters="sRGB">
<feFlood flood-opacity="0" result="BackgroundImageFix"/>
<feColorMatrix in="SourceAlpha" type="matrix" values="0 0 0 0 0 0 0 0 0 0 0 0 0 0 0 0 0 0 127 0" result="hardAlpha"/>
<feOffset dy="4"/>
<feGaussianBlur stdDeviation="2"/>
<feComposite in2="hardAlpha" operator="out"/>
<feColorMatrix type="matrix" values="0 0 0 0 0 0 0 0 0 0 0 0 0 0 0 0 0 0 0.25 0"/>
<feBlend mode="normal" in2="BackgroundImageFix" result="effect1_dropShadow_42336_2101"/>
<feBlend mode="normal" in="SourceGraphic" in2="effect1_dropShadow_42336_2101" result="shape"/>
</filter>
<clipPath id="clip0_42336_2101">
<rect width="174" height="44" fill="white" transform="translate(4)"/>
</clipPath>
</defs>
</svg>
