<svg width="78" height="31" viewBox="0 0 78 31" fill="none" xmlns="http://www.w3.org/2000/svg">
<path d="M5.17563 28.5456C5.17563 27.9899 4.98495 27.5213 4.60903 27.1345C4.23312 26.7477 3.77549 26.557 3.24158 26.557C2.7567 26.557 2.3372 26.7096 1.98308 27.0201C1.63441 27.3252 1.41649 27.6957 1.33477 28.137H0.817205V26.6387H0V30.4524H0.817205V28.8997H1.33477C1.41649 29.3628 1.63441 29.755 1.98308 30.0656C2.33176 30.3761 2.75126 30.5341 3.24158 30.5341C3.77549 30.5341 4.23312 30.3434 4.60903 29.9566C4.98495 29.5752 5.17563 29.1013 5.17563 28.5456ZM4.35842 28.5456C4.35842 28.9051 4.24946 29.2048 4.03154 29.439C3.80817 29.6787 3.54667 29.7986 3.24158 29.7986C2.93649 29.7986 2.67498 29.6787 2.45706 29.439C2.23369 29.2048 2.12473 28.9051 2.12473 28.5456C2.12473 28.186 2.23369 27.8863 2.45706 27.6466C2.67498 27.4124 2.93649 27.2925 3.24158 27.2925C3.54667 27.2925 3.80817 27.4124 4.03154 27.6466C4.24946 27.8863 4.35842 28.186 4.35842 28.5456Z" fill="#46466E"/>
<path d="M6.48047 26.639V30.4526H7.29767V29.1995H8.08764C8.4799 29.1995 8.80678 29.0742 9.06283 28.8291C9.31889 28.5839 9.44964 28.2788 9.44964 27.9192C9.44964 27.5542 9.31889 27.2546 9.06283 27.004C8.80133 26.7588 8.4799 26.639 8.08764 26.639H6.48047ZM8.0604 27.3744C8.22384 27.3744 8.36004 27.4289 8.469 27.5324C8.57796 27.636 8.63244 27.7667 8.63244 27.9192C8.63244 28.0718 8.57796 28.2025 8.469 28.3061C8.36004 28.4096 8.22384 28.4641 8.0604 28.4641H7.29767V27.3744H8.0604Z" fill="#46466E"/>
<path d="M14.1306 30.4526V26.639H13.4224L11.5428 29.0633V26.639H10.7256V30.4526H11.4338L13.3134 28.0282V30.4526H14.1306Z" fill="#46466E"/>
<path d="M15.1621 29.7171V31.2425H15.9793V30.4526H18.2675V31.2425H19.0847V29.7171H18.6216V26.639H15.9793V27.8103C15.9793 28.0663 15.9575 28.3061 15.9139 28.5294C15.8704 28.7582 15.8213 28.938 15.7723 29.0742C15.7178 29.205 15.6579 29.3248 15.5871 29.4392C15.5162 29.5482 15.4726 29.619 15.4454 29.6517C15.4127 29.679 15.3964 29.7062 15.38 29.7171H15.1621ZM16.7965 27.8103V27.3744H17.8044V29.7171H16.1972L16.2626 29.6517C16.3007 29.6081 16.3498 29.5373 16.4097 29.4338C16.4696 29.3303 16.5241 29.2104 16.584 29.0742C16.644 28.938 16.693 28.7528 16.7311 28.5294C16.7747 28.3061 16.7965 28.0663 16.7965 27.8103Z" fill="#46466E"/>
<path d="M23.656 30.4526V26.639H22.9478L21.0682 29.0633V26.639H20.251V30.4526H20.9592L22.8388 28.0282V30.4526H23.656Z" fill="#46466E"/>
<path d="M25.9412 26.639H25.124V27.8103C25.124 28.2679 25.2439 28.622 25.4836 28.8727C25.7288 29.1287 26.0611 29.254 26.486 29.254C26.851 29.254 27.1507 29.1832 27.385 29.0361V30.4526H28.2022V26.639H27.385V28.2461L27.2923 28.317C27.2324 28.3605 27.1398 28.4041 27.0145 28.4532C26.8892 28.4967 26.7584 28.5185 26.6222 28.5185C26.4043 28.5185 26.2354 28.4586 26.1156 28.3387C26.0012 28.2134 25.9412 28.0391 25.9412 27.8103V26.639Z" fill="#46466E"/>
<path d="M32.9924 26.639H32.1752V28.1644H30.5408V26.639H29.7236V30.4526H30.5408V28.8999H32.1752V30.4526H32.9924V26.639Z" fill="#46466E"/>
<path d="M36.4772 28.8454H35.551L36.0141 27.5924L36.4772 28.8454ZM36.7496 29.5537L37.0765 30.4526H37.9482L36.45 26.639H35.5783L34.0801 30.4526H34.9518L35.2786 29.5537H36.7496Z" fill="#46466E"/>
<path d="M41.5115 26.639H40.6943V30.4526H41.5115V29.363L42.0019 28.8182L43.1187 30.4526H44.0721L42.5467 28.2189L43.9632 26.639H43.0097L41.5115 28.3006V26.639Z" fill="#46466E"/>
<path d="M45.7312 28.5456C45.7312 28.1969 45.851 27.8972 46.0907 27.6575C46.325 27.4124 46.6137 27.2925 46.957 27.2925C47.3002 27.2925 47.5889 27.4124 47.8232 27.6575C48.0629 27.8972 48.1828 28.1969 48.1828 28.5456C48.1828 28.8997 48.0629 29.1939 47.8232 29.4336C47.5889 29.6788 47.3002 29.7986 46.957 29.7986C46.6137 29.7986 46.325 29.6788 46.0907 29.4336C45.851 29.1939 45.7312 28.8997 45.7312 28.5456ZM44.8867 28.5456C44.8867 29.0904 45.0883 29.5643 45.486 29.9512C45.8837 30.338 46.374 30.5341 46.957 30.5341C47.5399 30.5341 48.0302 30.338 48.4279 29.9512C48.8256 29.5643 49.0272 29.0904 49.0272 28.5456C49.0272 27.9953 48.8256 27.5268 48.4279 27.14C48.0302 26.7532 47.5399 26.557 46.957 26.557C46.374 26.557 45.8837 26.7532 45.486 27.14C45.0883 27.5268 44.8867 27.9953 44.8867 28.5456Z" fill="#46466E"/>
<path d="M52.3741 28.3006L51.0665 26.639H50.3311V30.4526H51.1483V27.9192L52.3741 29.4719L53.5999 27.9084V30.4526H54.4171V26.639H53.6925L52.3741 28.3006Z" fill="#46466E"/>
<path d="M59.1801 26.639H55.9385V30.4526H56.7557V27.3744H58.3629V30.4526H59.1801V26.639Z" fill="#46466E"/>
<path d="M62.6647 28.8454H61.7385L62.2016 27.5924L62.6647 28.8454ZM62.9371 29.5537L63.264 30.4526H64.1357L62.6375 26.639H61.7658L60.2676 30.4526H61.1393L61.4661 29.5537H62.9371Z" fill="#46466E"/>
<path d="M68.4915 26.639H67.6743V28.1644H66.0399V26.639H65.2227V30.4526H66.0399V28.8999H67.6743V30.4526H68.4915V26.639Z" fill="#46466E"/>
<path d="M70.8309 26.639H70.0137V30.4526H70.8309V26.639Z" fill="#46466E"/>
<path d="M75.1863 26.639H73.4974C73.1161 26.639 72.8055 26.7588 72.5604 26.9985C72.3152 27.2382 72.1899 27.5379 72.1899 27.892C72.1899 28.0446 72.2172 28.1862 72.2607 28.3224C72.3098 28.4586 72.3642 28.5621 72.4296 28.6384C72.4896 28.7147 72.5549 28.7855 72.6367 28.8509C72.7129 28.9162 72.7674 28.9598 72.8001 28.9762C72.8273 28.9871 72.8546 29.0034 72.8709 29.0089L72.0537 30.4526H72.9254L73.6609 29.1178H74.3691V30.4526H75.1863V26.639ZM73.0071 27.892C73.0071 27.7395 73.0561 27.6196 73.1542 27.5215C73.2523 27.4235 73.3776 27.3744 73.5247 27.3744H74.3691V28.3823H73.5247C73.3776 28.3823 73.2523 28.3333 73.1542 28.2407C73.0561 28.1481 73.0071 28.0282 73.0071 27.892Z" fill="#46466E"/>
<path d="M2.49057 7.62939e-05H0V17.9875H2.49057V11.3144C2.49057 10.1854 2.77137 9.29485 3.33296 8.66767C3.89456 8.04049 4.66371 7.71436 5.61598 7.71436C6.43396 7.71436 7.11765 8.01541 7.66704 8.59241C8.21643 9.18196 8.49723 9.92203 8.49723 10.8126V18.0001H11V10.8126C11 9.15687 10.5483 7.85234 9.64484 6.87394C8.7414 5.89555 7.55716 5.40635 6.11654 5.40635C5.70144 5.40635 5.28635 5.45652 4.88346 5.56941C4.46837 5.68231 4.13873 5.80774 3.87014 5.94572C3.60155 6.0837 3.34517 6.23422 3.11321 6.40983C2.88124 6.58544 2.72253 6.71088 2.64928 6.78614C2.57603 6.8614 2.51498 6.91157 2.49057 6.94921V7.62939e-05Z" fill="#F0145A"/>
<path d="M16.5675 0H14V17.9725H16.5675V0Z" fill="#323264"/>
<path d="M31.7113 12.7089L31.8396 11.4252C31.8396 9.70496 31.2748 8.26716 30.1194 7.11178C28.964 5.95641 27.5262 5.39156 25.806 5.39156C24.0858 5.39156 22.5966 6.00776 21.3642 7.24016C20.1318 8.47256 19.5156 9.93604 19.5156 11.6819C19.5156 13.4792 20.1575 15.0197 21.4156 16.3034C22.6737 17.5872 24.1885 18.2291 25.9344 18.2291C26.6019 18.2291 27.2181 18.1264 27.8343 17.9466C28.4505 17.7412 28.964 17.5358 29.3235 17.3304C29.7086 17.0994 30.0937 16.8426 30.4275 16.5602C30.7613 16.2778 30.9924 16.0724 31.0951 15.944C31.1978 15.8156 31.2748 15.7386 31.3261 15.6616L29.6573 13.9927L29.2721 14.4805C29.0154 14.7886 28.5789 15.0967 27.9627 15.4305C27.3208 15.7643 26.6533 15.9183 25.9344 15.9183C24.9331 15.9183 24.0858 15.6102 23.3669 14.9683C22.648 14.3265 22.2115 13.5819 22.0831 12.7089H31.7113ZM25.806 7.57393C26.756 7.57393 27.5262 7.85636 28.1681 8.39553C28.7843 8.96038 29.1694 9.65361 29.3235 10.5266H22.1858C22.4169 9.65361 22.8277 8.96038 23.4696 8.39553C24.0858 7.85636 24.8817 7.57393 25.806 7.57393Z" fill="#323264"/>
<path d="M43.6853 17.2277C43.6853 18.3574 43.3515 19.2817 42.6583 20.0006C41.9907 20.6939 41.1435 21.0533 40.0908 21.0533C39.6286 21.0533 39.1665 20.9763 38.73 20.8479C38.2935 20.7195 37.9598 20.5655 37.6773 20.3858C37.3949 20.206 37.1382 20.0263 36.8814 19.7952C36.6503 19.5642 36.4963 19.4101 36.4193 19.3331C36.3422 19.2561 36.2909 19.179 36.2395 19.1277L34.5707 20.7966L34.7761 21.0533C34.9044 21.233 35.1355 21.4641 35.4436 21.7209C35.7517 21.9519 36.1112 22.2087 36.522 22.4654C36.9328 22.6965 37.4463 22.9019 38.0881 23.0816C38.73 23.2614 39.3976 23.3641 40.0908 23.3641C41.8367 23.3641 43.2745 22.7735 44.4812 21.5925C45.6623 20.3858 46.2528 18.948 46.2528 17.2021V5.64831H43.6853V6.93206L43.2488 6.54693C42.9664 6.29018 42.5299 6.03343 41.9137 5.77668C41.2975 5.51993 40.63 5.39156 39.9624 5.39156C38.3962 5.39156 37.0611 5.98208 35.9058 7.18881C34.7504 8.39553 34.1855 9.83333 34.1855 11.5536C34.1855 13.2738 34.7504 14.7116 35.9058 15.9183C37.0611 17.125 38.3962 17.7156 39.9624 17.7156C40.3989 17.7156 40.8097 17.6642 41.2462 17.5615C41.657 17.4331 41.9907 17.3048 42.2732 17.1764C42.5556 17.048 42.8123 16.894 43.0434 16.7142C43.2745 16.5345 43.4542 16.4061 43.5056 16.3548L43.6853 16.1751V17.2277ZM36.753 11.5536C36.753 10.4752 37.0868 9.57658 37.78 8.83201C38.4733 8.08743 39.2949 7.70231 40.2192 7.70231C41.1435 7.70231 41.9651 8.08743 42.6583 8.83201C43.3258 9.57658 43.6853 10.4752 43.6853 11.5536C43.6853 12.6319 43.3258 13.5305 42.6583 14.2751C41.9651 15.0197 41.1435 15.4048 40.2192 15.4048C39.2949 15.4048 38.4733 15.0197 37.78 14.2751C37.0868 13.5305 36.753 12.6319 36.753 11.5536Z" fill="#323264"/>
<path d="M59.6542 17.9723V10.0131C59.6542 8.70363 59.1663 7.59961 58.2164 6.72666C57.2664 5.82803 56.034 5.39156 54.5192 5.39156C53.9286 5.39156 53.3381 5.46858 52.7733 5.62263C52.2084 5.80236 51.7463 5.98208 51.4125 6.18748C51.0787 6.39288 50.7449 6.62396 50.4368 6.90638C50.1287 7.16313 49.949 7.34286 49.8463 7.44556C49.7693 7.54826 49.6922 7.62528 49.6409 7.70231L51.3098 9.37118L51.6436 8.93471C51.849 8.65228 52.2084 8.39553 52.7476 8.11311C53.2868 7.83068 53.8773 7.70231 54.5192 7.70231C55.2637 7.70231 55.8799 7.93338 56.3678 8.36986C56.8556 8.80633 57.0867 9.37118 57.0867 10.0131L52.5935 10.7833C51.4895 10.963 50.5909 11.3995 49.9747 12.0927C49.3328 12.786 48.999 13.6332 48.999 14.6346C48.999 15.5845 49.4098 16.4061 50.2314 17.125C51.0787 17.8696 52.1057 18.2291 53.3638 18.2291C53.8003 18.2291 54.2111 18.1777 54.6219 18.0493C55.0583 17.9466 55.3921 17.8183 55.6745 17.6899C55.957 17.5615 56.2137 17.4075 56.4448 17.2277C56.6759 17.048 56.8299 16.9196 56.9326 16.8683C57.0096 16.7913 57.061 16.7142 57.0867 16.6886V17.9723H59.6542ZM53.7489 15.9183C53.0814 15.9183 52.5422 15.7643 52.1571 15.4562C51.7463 15.1481 51.5665 14.7886 51.5665 14.3778C51.5665 13.9413 51.6949 13.5562 51.9773 13.2738C52.2598 12.9914 52.6449 12.786 53.107 12.7089L57.0867 12.0671V12.3238C57.0867 13.4792 56.8042 14.3521 56.2137 14.994C55.6232 15.6102 54.8016 15.9183 53.7489 15.9183Z" fill="#323264"/>
<path d="M65.3204 -3.8147e-06H62.7529V17.9725H65.3204V-3.8147e-06Z" fill="#323264"/>
<path d="M76.9946 7.06043L76.8406 6.88071C76.7379 6.77801 76.5838 6.64963 76.3527 6.46991C76.1217 6.29018 75.8649 6.13613 75.5825 5.95641C75.3001 5.80236 74.9149 5.67398 74.4528 5.54561C73.9906 5.44291 73.5028 5.39156 73.015 5.39156C71.7569 5.39156 70.7299 5.75101 69.9083 6.46991C69.061 7.21448 68.6502 8.03608 68.6502 8.98606C68.6502 9.67929 68.8043 10.2441 69.1124 10.7576C69.4205 11.2455 69.8056 11.6049 70.2934 11.8103C70.7556 12.0414 71.2691 12.2725 71.8083 12.4522C72.3474 12.6319 72.8353 12.786 73.3231 12.9143C73.7852 13.0684 74.1704 13.2481 74.4785 13.4792C74.7866 13.7103 74.9406 14.0184 74.9406 14.3778C74.9406 14.84 74.7609 15.2251 74.4271 15.5075C74.0933 15.7643 73.5798 15.9183 72.8866 15.9183C72.3218 15.9183 71.7569 15.7643 71.2177 15.5075C70.6785 15.2251 70.3448 14.994 70.165 14.8143C70.011 14.6346 69.8826 14.4805 69.8056 14.3778L68.1367 16.0467L68.3164 16.2778C68.4448 16.4318 68.6245 16.6115 68.8813 16.8169C69.1637 17.048 69.4718 17.2534 69.8056 17.4588C70.165 17.6642 70.6272 17.8439 71.1664 17.998C71.7056 18.152 72.2961 18.2291 72.8866 18.2291C74.2474 18.2291 75.3771 17.8439 76.2244 17.0994C77.0716 16.3548 77.5081 15.4305 77.5081 14.3778C77.5081 13.6846 77.3541 13.0941 77.046 12.6319C76.7379 12.1441 76.3527 11.7846 75.8649 11.5536C75.4028 11.2968 74.8893 11.0914 74.3501 10.9117C73.8109 10.732 73.3231 10.5522 72.8353 10.4495C72.3731 10.3212 71.988 10.1158 71.6799 9.88469C71.3718 9.65361 71.2177 9.34551 71.2177 8.98606C71.2177 8.65228 71.3718 8.34418 71.7056 8.08743C72.0137 7.83068 72.4501 7.70231 73.015 7.70231C73.4258 7.70231 73.8366 7.80501 74.2217 7.98473C74.6325 8.16446 74.9149 8.31851 75.0433 8.44688C75.1717 8.57526 75.2744 8.67796 75.3257 8.72931L76.9946 7.06043Z" fill="#323264"/>
</svg>
